<svg width="20" height="20" viewBox="0 0 20 20" fill="none" xmlns="http://www.w3.org/2000/svg">
<path d="M9.25226 2.79568C9.91413 2.32291 10.8335 2.79604 10.8335 3.60941V16.3897C10.8335 17.2031 9.91413 17.6762 9.25226 17.2034L5.00016 14.1662H2.8335C1.72893 14.1662 0.833496 13.2708 0.833496 12.1662V7.83289C0.833496 6.72832 1.72893 5.83289 2.8335 5.83289H5.00016L9.25226 2.79568Z" fill="#02EE9F"/>
<path d="M13.3285 14.0872C14.3625 13.0347 15.0003 11.5915 15.0003 9.99946C15.0003 8.40068 14.3572 6.95213 13.3154 5.89844" stroke="#02EE9F" stroke-width="2" stroke-linecap="round" stroke-linejoin="round"/>
<path d="M15.6484 3.51758C17.3073 5.17642 18.3333 7.46808 18.3333 9.99939C18.3333 12.5307 17.3073 14.8224 15.6484 16.4812" stroke="#02EE9F" stroke-width="2" stroke-linecap="round" stroke-linejoin="round"/>
</svg>
