<svg width="26" height="26" viewBox="0 0 26 26" fill="none" xmlns="http://www.w3.org/2000/svg">
<path d="M8.66667 11.9163C11.6582 11.9163 14.0833 9.49122 14.0833 6.49967C14.0833 3.50813 11.6582 1.08301 8.66667 1.08301C5.67512 1.08301 3.25 3.50813 3.25 6.49967C3.25 9.49122 5.67512 11.9163 8.66667 11.9163Z" fill="white"/>
<path d="M0 22.083C0 17.6647 3.58172 14.083 8 14.083H9.33334C13.7516 14.083 17.3333 17.6647 17.3333 22.083V22.9163C17.3333 24.0209 16.4379 24.9163 15.3333 24.9163H2C0.895431 24.9163 0 24.0209 0 22.9163V22.083Z" fill="white"/>
<path d="M18.4165 14.083C20.2114 14.083 21.6665 12.6279 21.6665 10.833C21.6665 9.03808 20.2114 7.58301 18.4165 7.58301C16.6216 7.58301 15.1665 9.03808 15.1665 10.833C15.1665 12.6279 16.6216 14.083 18.4165 14.083Z" fill="white"/>
<path d="M20.5835 10.8337V2.16699L23.8335 3.25033" stroke="white" stroke-width="2" stroke-linecap="round" stroke-linejoin="round"/>
</svg>
